TITLE ""
FILE "2Q_k_061-070.mp3" MP3
  TRACK 01 AUDIO
    TITLE "2Q_k_061-070_01"
    INDEX 01 00:00:00
  TRACK 02 AUDIO
    TITLE "2Q_k_061-070_02"
    INDEX 01 00:02:01
  TRACK 03 AUDIO
    TITLE "2Q_k_061-070_03"
    INDEX 01 00:02:52
  TRACK 04 AUDIO
    TITLE "2Q_k_061-070_04"
    INDEX 01 00:05:31
  TRACK 05 AUDIO
    TITLE "2Q_k_061-070_05"
    INDEX 01 00:06:01
  TRACK 06 AUDIO
    TITLE "2Q_k_061-070_06"
    INDEX 01 00:08:73
  TRACK 07 AUDIO
    TITLE "2Q_k_061-070_07"
    INDEX 01 00:12:02
  TRACK 08 AUDIO
    TITLE "2Q_k_061-070_08"
    INDEX 01 00:12:49
  TRACK 09 AUDIO
    TITLE "2Q_k_061-070_09"
    INDEX 01 00:14:16
  TRACK 10 AUDIO
    TITLE "2Q_k_061-070_10"
    INDEX 01 00:14:61
  TRACK 11 AUDIO
    TITLE "2Q_k_061-070_11"
    INDEX 01 00:16:19
  TRACK 12 AUDIO
    TITLE "2Q_k_061-070_12"
    INDEX 01 00:16:68
  TRACK 13 AUDIO
    TITLE "2Q_k_061-070_13"
    INDEX 01 00:18:26
  TRACK 14 AUDIO
    TITLE "2Q_k_061-070_14"
    INDEX 01 00:20:31
  TRACK 15 AUDIO
    TITLE "2Q_k_061-070_15"
    INDEX 01 00:21:01
  TRACK 16 AUDIO
    TITLE "2Q_k_061-070_16"
    INDEX 01 00:22:35
  TRACK 17 AUDIO
    TITLE "2Q_k_061-070_17"
    INDEX 01 00:23:07
  TRACK 18 AUDIO
    TITLE "2Q_k_061-070_18"
    INDEX 01 00:24:70
  TRACK 19 AUDIO
    TITLE "2Q_k_061-070_19"
    INDEX 01 00:25:40
  TRACK 20 AUDIO
    TITLE "2Q_k_061-070_20"
    INDEX 01 00:30:47
  TRACK 21 AUDIO
    TITLE "2Q_k_061-070_21"
    INDEX 01 00:35:67
  TRACK 22 AUDIO
    TITLE "2Q_k_061-070_22"
    INDEX 01 00:36:37
  TRACK 23 AUDIO
    TITLE "2Q_k_061-070_23"
    INDEX 01 00:38:32
  TRACK 24 AUDIO
    TITLE "2Q_k_061-070_24"
    INDEX 01 00:39:04
  TRACK 25 AUDIO
    TITLE "2Q_k_061-070_25"
    INDEX 01 00:40:41
  TRACK 26 AUDIO
    TITLE "2Q_k_061-070_26"
    INDEX 01 00:41:11
  TRACK 27 AUDIO
    TITLE "2Q_k_061-070_27"
    INDEX 01 00:43:06
  TRACK 28 AUDIO
    TITLE "2Q_k_061-070_28"
    INDEX 01 00:45:46
  TRACK 29 AUDIO
    TITLE "2Q_k_061-070_29"
    INDEX 01 00:46:14
  TRACK 30 AUDIO
    TITLE "2Q_k_061-070_30"
    INDEX 01 00:47:73
  TRACK 31 AUDIO
    TITLE "2Q_k_061-070_31"
    INDEX 01 00:48:43
  TRACK 32 AUDIO
    TITLE "2Q_k_061-070_32"
    INDEX 01 00:51:21
  TRACK 33 AUDIO
    TITLE "2Q_k_061-070_33"
    INDEX 01 00:51:66
  TRACK 34 AUDIO
    TITLE "2Q_k_061-070_34"
    INDEX 01 00:54:63
  TRACK 35 AUDIO
    TITLE "2Q_k_061-070_35"
    INDEX 01 00:57:65
  TRACK 36 AUDIO
    TITLE "2Q_k_061-070_36"
    INDEX 01 00:58:35
  TRACK 37 AUDIO
    TITLE "2Q_k_061-070_37"
    INDEX 01 00:59:58
  TRACK 38 AUDIO
    TITLE "2Q_k_061-070_38"
    INDEX 01 01:00:34
  TRACK 39 AUDIO
    TITLE "2Q_k_061-070_39"
    INDEX 01 01:02:74
  TRACK 40 AUDIO
    TITLE "2Q_k_061-070_40"
    INDEX 01 01:03:44
  TRACK 41 AUDIO
    TITLE "2Q_k_061-070_41"
    INDEX 01 01:05:65
  TRACK 42 AUDIO
    TITLE "2Q_k_061-070_42"
    INDEX 01 01:09:10
  TRACK 43 AUDIO
    TITLE "2Q_k_061-070_43"
    INDEX 01 01:09:55
  TRACK 44 AUDIO
    TITLE "2Q_k_061-070_44"
    INDEX 01 01:11:03
  TRACK 45 AUDIO
    TITLE "2Q_k_061-070_45"
    INDEX 01 01:11:53
  TRACK 46 AUDIO
    TITLE "2Q_k_061-070_46"
    INDEX 01 01:13:09
  TRACK 47 AUDIO
    TITLE "2Q_k_061-070_47"
    INDEX 01 01:13:54
  TRACK 48 AUDIO
    TITLE "2Q_k_061-070_48"
    INDEX 01 01:18:16
  TRACK 49 AUDIO
    TITLE "2Q_k_061-070_49"
    INDEX 01 01:21:01
  TRACK 50 AUDIO
    TITLE "2Q_k_061-070_50"
    INDEX 01 01:21:44
  TRACK 51 AUDIO
    TITLE "2Q_k_061-070_51"
    INDEX 01 01:22:65
  TRACK 52 AUDIO
    TITLE "2Q_k_061-070_52"
    INDEX 01 01:23:43
  TRACK 53 AUDIO
    TITLE "2Q_k_061-070_53"
    INDEX 01 01:25:05
  TRACK 54 AUDIO
    TITLE "2Q_k_061-070_54"
    INDEX 01 01:25:54
  TRACK 55 AUDIO
    TITLE "2Q_k_061-070_55"
    INDEX 01 01:28:38
  TRACK 56 AUDIO
    TITLE "2Q_k_061-070_56"
    INDEX 01 01:31:31
  TRACK 57 AUDIO
    TITLE "2Q_k_061-070_57"
    INDEX 01 01:32:07
  TRACK 58 AUDIO
    TITLE "2Q_k_061-070_58"
    INDEX 01 01:33:39
  TRACK 59 AUDIO
    TITLE "2Q_k_061-070_59"
    INDEX 01 01:34:19
  TRACK 60 AUDIO
    TITLE "2Q_k_061-070_60"
    INDEX 01 01:35:38
  TRACK 61 AUDIO
    TITLE "2Q_k_061-070_61"
    INDEX 01 01:36:08
  TRACK 62 AUDIO
    TITLE "2Q_k_061-070_62"
    INDEX 01 01:38:17
  TRACK 63 AUDIO
    TITLE "2Q_k_061-070_63"
    INDEX 01 01:43:38
  TRACK 64 AUDIO
    TITLE "2Q_k_061-070_64"
    INDEX 01 01:44:16
  TRACK 65 AUDIO
    TITLE "2Q_k_061-070_65"
    INDEX 01 01:46:09
  TRACK 66 AUDIO
    TITLE "2Q_k_061-070_66"
    INDEX 01 01:46:56
  TRACK 67 AUDIO
    TITLE "2Q_k_061-070_67"
    INDEX 01 01:48:21
  TRACK 68 AUDIO
    TITLE "2Q_k_061-070_68"
    INDEX 01 01:48:66
  TRACK 69 AUDIO
    TITLE "2Q_k_061-070_69"
    INDEX 01 01:53:17
  TRACK 70 AUDIO
    TITLE "2Q_k_061-070_70"
    INDEX 01 01:55:21
